# xmcd CD database file
#
# Track frame offsets:
#	150
#	17703
#	34220
#	53711
#	67350
#	82603
#	100918
#	115822
#	132021
#	150003
#
# Disc length: 2165 seconds
#
# Revision: 0
# Processed by: cddbd v1.5.2PL0 Copyright (c) Steve Scherf et al.
# Submitted via: CDex 1.70beta2
#
DISCID=7108730a
DTITLE=Kate Russell - Kicking Down The Door
DYEAR=1900
DGENRE=Country
TTITLE0=Mr Right
TTITLE1=Our Redneck Neighbor
TTITLE2=The Man He Could Be
TTITLE3=Low Percentage
TTITLE4=Coyote Moon
TTITLE5=Red Cloud Road
TTITLE6=Damned If I Do
TTITLE7=Table 32
TTITLE8=The Cell Phone Song
TTITLE9=Kick Down The Door
EXTD=
EXTT0=
EXTT1=
EXTT2=
EXTT3=
EXTT4=
EXTT5=
EXTT6=
EXTT7=
EXTT8=
EXTT9=
PLAYORDER=
